<svg id="visual" viewBox="0 0 900 450" width="900" height="450" xmlns="http://www.w3.org/2000/svg" xmlns:xlink="http://www.w3.org/1999/xlink" version="1.1"><rect x="0" y="0" width="900" height="450" fill="#20003f"></rect><defs><linearGradient id="grad1_0" x1="50%" y1="0%" x2="100%" y2="100%"><stop offset="10%" stop-color="#20003f" stop-opacity="1"></stop><stop offset="90%" stop-color="#20003f" stop-opacity="1"></stop></linearGradient></defs><defs><linearGradient id="grad2_0" x1="0%" y1="0%" x2="50%" y2="100%"><stop offset="10%" stop-color="#20003f" stop-opacity="1"></stop><stop offset="90%" stop-color="#20003f" stop-opacity="1"></stop></linearGradient></defs><g transform="translate(900, 0)"><path d="M0 405C-46.8 387.7 -93.6 370.4 -147 354.8C-200.3 339.1 -260.1 325.1 -286.4 286.4C-312.7 247.7 -305.5 184.3 -319.7 132.4C-333.8 80.6 -369.4 40.3 -405 0L0 0Z" fill="#340062"></path></g><g transform="translate(0, 450)"><path d="M0 -405C40 -368.1 80.1 -331.2 131.3 -316.9C182.5 -302.6 244.8 -310.9 286.4 -286.4C327.9 -261.8 348.6 -204.4 364.9 -151.2C381.2 -97.9 393.1 -49 405 0L0 0Z" fill="#340062"></path></g></svg>